<?xml version="1.0" encoding="UTF-8" standalone="no"?>
<svg width="14px" height="14px" viewBox="0 0 14 14" version="1.1" xmlns="http://www.w3.org/2000/svg" xmlns:xlink="http://www.w3.org/1999/xlink">
    <!-- Generator: Sketch 47.1 (45422) - http://www.bohemiancoding.com/sketch -->
    <title>Combined Shape</title>
    <desc>Created with Sketch.</desc>
    <defs></defs>
    <g id="云仓主页面" stroke="none" stroke-width="1" fill="none" fill-rule="evenodd">
        <g id="配货单" transform="translate(-474.000000, -334.000000)" fill="#E6E6E6">
            <path d="M481,334 C484.866406,334 488,337.133594 488,341 C488,344.866406 484.866406,348 481,348 C477.133594,348 474,344.866406 474,341 C474,337.133594 477.133594,334 481,334 Z M484.294922,343.61543 L481.624805,341 L484.294922,338.385938 C484.468555,338.216406 484.471289,337.938867 484.301758,337.766602 C484.132227,337.592969 483.854687,337.590234 483.682422,337.759766 L481,340.3875 L478.317578,337.758398 C478.143945,337.590234 477.867773,337.592969 477.698242,337.765234 C477.530078,337.938867 477.532812,338.215039 477.705078,338.38457 L480.375195,341 L477.705078,343.614063 C477.531445,343.783594 477.528711,344.061133 477.698242,344.233398 C477.867773,344.407031 478.145312,344.409766 478.317578,344.240234 L481,341.6125 L483.682422,344.241602 C483.856055,344.409766 484.132227,344.407031 484.301758,344.234766 C484.469922,344.061133 484.467187,343.784961 484.294922,343.61543 Z" id="Combined-Shape"></path>
        </g>
    </g>
</svg>