<?xml version="1.0" encoding="UTF-8" standalone="no"?>
<svg width="137px" height="37px" viewBox="0 0 137 37" version="1.1" xmlns="http://www.w3.org/2000/svg" xmlns:xlink="http://www.w3.org/1999/xlink">
    <!-- Generator: Sketch 47.1 (45422) - http://www.bohemiancoding.com/sketch -->
    <title>logo</title>
    <desc>Created with Sketch.</desc>
    <defs></defs>
    <g id="云仓主页面" stroke="none" stroke-width="1" fill="none" fill-rule="evenodd">
        <g id="默认页面2" transform="translate(-51.000000, -121.000000)">
            <g id="logo" transform="translate(50.000000, 121.000000)">
                <text id="典典云仓-copy" font-family="FZLTCHJW--GB1-0, FZLanTingHeiS-B-GB" font-size="24" font-weight="normal" fill="#DE5550">
                    <tspan x="0" y="21">典典</tspan>
                    <tspan x="48" y="21" font-family="FZLTHJW--GB1-0, FZLanTingHeiS-R-GB">云仓</tspan>
                </text>
                <text id="DIANDIANYUNCANG-Copy-2" font-family="HelveticaNeue-Light, Helvetica Neue" font-size="8" font-weight="300" letter-spacing="1.28999996" fill="#DE5550">
                    <tspan x="2" y="36">DIANDIANYUNCAN</tspan>
                    <tspan x="88.2199995" y="36">G</tspan>
                </text>
                <g id="Group-2-Copy-2" transform="translate(106.000000, 0.000000)">
                    <path d="M16.45,0.259807621 L31.1384573,8.74019238 L31.1384573,8.74019238 C31.4169182,8.90096189 31.5884573,9.19807621 31.5884573,9.51961524 L31.5884573,26.4803848 L31.5884573,26.4803848 C31.5884573,26.8019238 31.4169182,27.0990381 31.1384573,27.2598076 L16.45,35.7401924 L16.45,35.7401924 C16.171539,35.9009619 15.828461,35.9009619 15.55,35.7401924 L0.861542732,27.2598076 L0.861542732,27.2598076 C0.583081763,27.0990381 0.411542732,26.8019238 0.411542732,26.4803848 L0.411542732,9.51961524 L0.411542732,9.51961524 C0.411542732,9.19807621 0.583081763,8.90096189 0.861542732,8.74019238 L15.55,0.259807621 L15.55,0.259807621 C15.828461,0.0990381057 16.171539,0.0990381057 16.45,0.259807621 Z" id="Polygon" fill="#DE5550"></path>
                    <g id="Group" transform="translate(4.300000, 4.500000)" fill="#FFFFFF">
                        <polygon id="Polygon" transform="translate(5.400000, 17.550000) scale(1, -1) translate(-5.400000, -17.550000) " points="10.8 8.1 10.8 20.7461426 6.89448498e-15 27 0 14.4"></polygon>
                        <polygon id="Polygon" transform="translate(17.961011, 17.550000) scale(-1, -1) translate(-17.961011, -17.550000) " points="23.3610108 8.1 23.3610108 20.7461426 12.5610108 27 12.5610108 14.4"></polygon>
                        <polygon id="Polygon" points="11.7 0 22.5 6.3 11.7 12.5673926 0.9 6.3"></polygon>
                    </g>
                </g>
            </g>
        </g>
    </g>
</svg>