<?xml version="1.0" encoding="utf-8"?>
<!-- Generator: Adobe Illustrator 21.0.0, SVG Export Plug-In . SVG Version: 6.00 Build 0)  -->
<svg version="1.1" id="图形" xmlns="http://www.w3.org/2000/svg" xmlns:xlink="http://www.w3.org/1999/xlink" x="0px" y="0px"
	 viewBox="15.167 232.839 1000.636 439" enable-background="new 15.167 232.839 1000.636 439" xml:space="preserve">
<g id="Web-icon">
</g>
<g id="Web-icon_1_">
	<g id="Group">
		<path id="Combined-Shape" fill="#E64747" d="M163.756,295.959h169.876c46.91,0,84.938,38.028,84.938,84.938v169.876
			c0,46.91-38.028,84.938-84.938,84.938H163.756c-46.91,0-84.938-38.028-84.938-84.938V380.897
			C78.818,333.987,116.846,295.959,163.756,295.959z M161.204,459.116c6.171-59.977,34.401-88.227,87.13-88.227
			c52.846,0,82.062,28.419,89.971,88.525c0.765,5.814,6.098,9.906,11.912,9.141c5.814-0.765,9.906-6.098,9.141-11.912
			c-9.242-70.237-47.025-106.989-111.024-106.989c-64.116,0-101.013,36.922-108.253,107.288c-0.6,5.833,3.642,11.048,9.475,11.648
			C155.389,469.191,160.604,464.949,161.204,459.116z M211.108,439.485c50.459-20.422,75.351-16.747,81.513,6.969
			c6.312,24.296-14.868,42.896-70.142,55.527c-5.716,1.306-9.292,6.999-7.985,12.716c1.306,5.716,6.999,9.292,12.716,7.985
			c65.379-14.939,96.234-42.037,85.964-81.567c-10.421-40.11-49.377-45.862-110.032-21.313c-5.435,2.2-8.058,8.39-5.858,13.825
			C199.483,439.062,205.673,441.685,211.108,439.485z M264.421,441.457c-64.324,14.586-94.949,46.914-87.177,95.468
			c5.768,36.038,37.207,50.794,78.399,46.364c33.878-3.644,68.601-19.899,77.112-37.896c2.507-5.301,0.242-11.63-5.059-14.137
			s-11.63-0.242-14.137,5.059c-4.569,9.661-32.906,22.927-60.186,25.861c-31.331,3.37-51.562-6.126-55.16-28.607
			c-5.72-35.736,16.349-59.032,70.906-71.404c5.719-1.297,9.303-6.984,8.006-12.702C275.827,443.745,270.14,440.16,264.421,441.457z
			"/>
		<g id="Group-18" transform="translate(8.000000, 7.000000)">
		</g>
		<g>
			<polygon fill="#3A3A48" points="484.043,393.646 535.249,315.075 532.716,315.075 482.186,393.328 			"/>
			<polygon fill="#3A3A48" points="531.02,315.075 511.569,315.075 461.038,393.328 479.108,393.646 			"/>
			<path fill="#3A3A48" d="M577.341,606.845v-21.566c0.664-11.944-5.64-17.695-18.912-17.253
				c-12.166-0.221-19.244,4.424-21.234,13.935l4.645,1.659c1.327-7.963,6.857-11.834,16.589-11.613
				c9.954-0.442,14.599,3.871,13.935,12.94c-1.548,2.654-7.852,4.424-18.912,5.309c-11.723,1.327-17.585,6.415-17.585,15.262
				c0.221,8.405,5.309,12.719,15.262,12.94c10.617-0.221,17.695-3.65,21.234-10.285c0,3.982,0.885,6.968,2.654,8.958h4.977
				C578.005,614.918,577.12,611.49,577.341,606.845z M572.696,598.218c-0.885,10.396-7.299,15.815-19.244,16.258
				c-9.069,0.221-13.382-2.765-12.94-8.958c-0.664-6.636,4.645-10.396,15.926-11.281c9.29-1.106,14.709-2.986,16.258-5.64V598.218z"
				/>
			<path fill="#3A3A48" d="M486.586,614.476c-10.838-0.442-16.368-7.41-16.589-20.903c0.221-13.935,5.751-21.013,16.589-21.234
				c7.299,0.442,12.055,4.313,14.267,11.613l4.977-1.327c-2.876-9.29-9.511-14.156-19.907-14.599
				c-13.493,0.664-20.571,9.179-21.234,25.548c0.221,16.147,7.41,24.442,21.566,24.884c11.502,0.221,18.248-5.198,20.239-16.258
				l-4.977-1.327C500.411,609.72,495.434,614.255,486.586,614.476z"/>
			<polygon fill="#3A3A48" points="734.851,429.055 749.098,386.327 733.663,381.046 719.416,423.774 			"/>
			
				<rect x="726.152" y="321.525" transform="matrix(0.9226 -0.3856 0.3856 0.9226 -74.3217 309.4655)" fill="#3A3A48" width="16.21" height="36.945"/>
			<polygon fill="#3A3A48" points="823.661,326.075 808.938,319.834 794.69,353.92 809.65,360.162 			"/>
			<polygon fill="#3A3A48" points="763.583,431.216 779.73,431.216 779.73,379.606 826.748,379.606 826.748,363.282 779.73,363.282 
				779.73,317.193 763.583,317.193 763.583,363.282 716.804,363.282 716.804,379.606 763.583,379.606 			"/>
			<polygon fill="#3A3A48" points="808.701,429.055 823.898,423.774 809.65,381.046 794.453,386.327 			"/>
			<path fill="#3A3A48" d="M504.28,507.656v-80.705c0-8.121,6.561-14.72,14.637-14.72h120.374c3.028,0,5.299,2.284,5.299,5.33
				v39.845c0,3.045-2.271,5.33-5.299,5.33h-65.186l-11.279,17.258h76.464c12.365,0,22.46-10.405,22.46-22.587v-39.845
				c0-12.182-10.094-22.587-22.46-22.587H518.917c-17.413,0-31.797,14.466-31.797,31.977v80.705
				c0,17.511,14.384,31.724,31.797,31.724h149.38l11.978-17.258H518.917C510.841,522.122,504.28,515.524,504.28,507.656z"/>
			<path fill="#3A3A48" d="M859.738,568.025c-8.184,0.442-13.935,4.092-17.253,10.949v-27.538h-4.977v66.026h4.977v-27.539
				c0.664-11.502,6.083-17.474,16.258-17.917c9.069-0.221,13.493,4.866,13.272,15.262v30.193h4.645v-30.856
				C876.88,573.997,871.24,567.804,859.738,568.025z"/>
			<path fill="#3A3A48" d="M948.787,543.44l-48.054-84.258c11.861-28.17,21.955-62.178,29.778-104.307h9.337l2.82-17.258H861.87
				l3.281-22.333l-17.16,0.044l-6.561,39.547h71.922c-6.309,33.5-14.132,61.417-22.965,85.019l-30.798-56.691l-19.717,0.464
				l41.935,76.531c-9.085,20.303-27.826,47.86-56.223,82.672l22.355,0.114c20.392-25.075,35.046-46.579,43.962-64.514l35.835,64.97
				H948.787z"/>
			<path fill="#3A3A48" d="M790.453,513.24c14.384-11.928,24.226-27.155,28.264-46.443h13.627l11.279-17.258h-83.957l5.06-14.537
				h-17.887l-5.595,14.537h-16.985l-11.279,17.258h21.955l-2.019,6.091c-1.766,5.076-2.776,9.644-2.776,14.72
				c0,11.928,5.552,21.318,17.917,26.394l3.785,1.776c-5.493,3.087-13.163,5.51-23.011,7.27l-13.076,20.393
				c21.955-4.061,41.639-10.151,57.537-19.034l44.135,18.464l8.86-14.657L790.453,513.24z M771.526,505.372l-16.908-7.36
				c-5.047-2.03-7.318-5.837-7.318-10.405c0-2.538,0.505-5.837,1.767-9.136l4.29-11.674H800.8
				C796.257,483.039,785.91,495.728,771.526,505.372z"/>
			<path fill="#3A3A48" d="M947.507,569.353v29.197c-1.106,10.175-6.525,15.483-16.258,15.926
				c-9.29,0.221-13.825-4.645-13.603-14.599v-30.856h-4.645v31.52c-0.221,12.166,5.53,18.138,17.253,17.917
				c7.963-0.442,13.714-3.871,17.253-10.285v9.29h4.645v-48.109H947.507z"/>
			<path fill="#3A3A48" d="M636.245,568.025c-7.963,0.221-13.825,3.981-17.585,11.281v-9.954h-4.645v48.109h4.645v-29.861
				c1.548-9.732,6.968-14.93,16.258-15.594c9.29-0.221,13.825,4.866,13.603,15.262v30.193h4.645v-30.856
				C653.387,573.997,647.747,567.804,636.245,568.025z"/>
			<path fill="#3A3A48" d="M729.323,569.021h-4.645v8.295c-3.539-5.972-9.29-9.069-17.253-9.29
				c-13.272,0.885-20.239,9.069-20.903,24.552c0.221,15.041,6.968,22.783,20.239,23.225c9.29,0,15.262-2.986,17.917-8.958v6.636
				c0.442,11.281-5.53,16.811-17.917,16.589c-6.636-0.221-11.834-2.212-15.594-5.972l-2.654,2.654
				c4.203,4.645,10.285,7.078,18.248,7.299c15.705,0.664,23.225-6.967,22.562-22.893V569.021z M724.677,594.9
				c-0.221,11.723-5.751,17.695-16.589,17.917c-10.839-0.221-16.368-6.967-16.589-20.239c0.442-13.272,6.193-20.129,17.253-20.571
				c9.733,0.885,15.041,6.083,15.926,15.594V594.9z"/>
			<path fill="#3A3A48" d="M612.289,315.285c-17.92,0-40.327,0-67.22,0l-11.161,17.258c15.852,0,46.678,0,78.382,0
				c11.608,0,18.17,7.36,24.479,17.004l28.881,44.535l19.319-0.629l-33.816-53.295C641.31,325.183,632.73,315.285,612.289,315.285z"
				/>
			<path fill="#3A3A48" d="M784.576,591.251c-11.281-1.77-16.479-4.977-15.594-9.622c0.221-6.193,4.645-9.29,13.272-9.29
				c7.299,0,11.723,3.318,13.272,9.954l4.645-1.659c-1.77-8.405-7.963-12.608-18.58-12.608
				c-10.839,0.442-16.589,4.977-17.253,13.603c-0.664,7.078,5.53,11.613,18.58,13.603c10.396,1.548,15.262,4.866,14.599,9.954
				c-0.442,6.193-5.309,9.29-14.599,9.29c-9.069,0.221-14.378-3.65-15.926-11.613l-4.645,1.327
				c2.654,9.732,9.511,14.488,20.571,14.267c12.608-0.221,19.133-4.756,19.576-13.603
				C802.935,597.776,796.963,593.241,784.576,591.251z"/>
		</g>
	</g>
</g>
</svg>
